<svg width="30" height="30" viewBox="0 0 30 30" fill="none" xmlns="http://www.w3.org/2000/svg">
<circle cx="15" cy="15" r="13.5" fill="white" stroke="white" stroke-width="3"/>
<g clip-path="url(#clip0_133_151)">
<path fill-rule="evenodd" clip-rule="evenodd" d="M11.2209 5.88825C12.1984 5.84325 12.51 5.83325 15 5.83325C17.49 5.83325 17.8017 5.84409 18.7784 5.88825C19.755 5.93242 20.4217 6.08825 21.005 6.31409C21.6159 6.54492 22.17 6.90575 22.6284 7.37242C23.095 7.82992 23.455 8.38325 23.685 8.99492C23.9117 9.57825 24.0667 10.2449 24.1117 11.2199C24.1567 12.1991 24.1667 12.5108 24.1667 14.9999C24.1667 17.4899 24.1559 17.8016 24.1117 18.7791C24.0675 19.7541 23.9117 20.4208 23.685 21.0041C23.455 21.6158 23.0944 22.1701 22.6284 22.6283C22.17 23.0949 21.6159 23.4549 21.005 23.6849C20.4217 23.9116 19.755 24.0666 18.78 24.1116C17.8017 24.1566 17.49 24.1666 15 24.1666C12.51 24.1666 12.1984 24.1558 11.2209 24.1116C10.2459 24.0674 9.57921 23.9116 8.99587 23.6849C8.38414 23.4549 7.82989 23.0943 7.37171 22.6283C6.90536 22.1705 6.54447 21.6165 6.31421 21.0049C6.08837 20.4216 5.93337 19.7549 5.88837 18.7799C5.84337 17.8008 5.83337 17.4891 5.83337 14.9999C5.83337 12.5099 5.84421 12.1983 5.88837 11.2216C5.93254 10.2449 6.08837 9.57825 6.31421 8.99492C6.54481 8.38332 6.90597 7.82935 7.37254 7.37159C7.83007 6.90534 8.38377 6.54445 8.99504 6.31409C9.57837 6.08825 10.245 5.93325 11.22 5.88825H11.2209ZM18.7042 7.53825C17.7375 7.49409 17.4475 7.48492 15 7.48492C12.5525 7.48492 12.2625 7.49409 11.2959 7.53825C10.4017 7.57909 9.91671 7.72825 9.59337 7.85409C9.16587 8.02075 8.86004 8.21825 8.53921 8.53909C8.23508 8.83496 8.00102 9.19515 7.85421 9.59325C7.72837 9.91659 7.57921 10.4016 7.53837 11.2958C7.49421 12.2624 7.48504 12.5524 7.48504 14.9999C7.48504 17.4474 7.49421 17.7374 7.53837 18.7041C7.57921 19.5983 7.72837 20.0833 7.85421 20.4066C8.00087 20.8041 8.23504 21.1649 8.53921 21.4608C8.83504 21.7649 9.19587 21.9991 9.59337 22.1458C9.91671 22.2716 10.4017 22.4208 11.2959 22.4616C12.2625 22.5058 12.5517 22.5149 15 22.5149C17.4484 22.5149 17.7375 22.5058 18.7042 22.4616C19.5984 22.4208 20.0834 22.2716 20.4067 22.1458C20.8342 21.9791 21.14 21.7816 21.4609 21.4608C21.765 21.1649 21.9992 20.8041 22.1459 20.4066C22.2717 20.0833 22.4209 19.5983 22.4617 18.7041C22.5059 17.7374 22.515 17.4474 22.515 14.9999C22.515 12.5524 22.5059 12.2624 22.4617 11.2958C22.4209 10.4016 22.2717 9.91659 22.1459 9.59325C21.9792 9.16575 21.7817 8.85992 21.4609 8.53909C21.165 8.23498 20.8048 8.00093 20.4067 7.85409C20.0834 7.72825 19.5984 7.57909 18.7042 7.53825ZM13.8292 17.8258C14.4831 18.0979 15.2112 18.1347 15.8891 17.9297C16.5671 17.7247 17.1529 17.2907 17.5464 16.7018C17.9399 16.1129 18.1168 15.4056 18.0467 14.7008C17.9767 13.996 17.6642 13.3374 17.1625 12.8374C16.8427 12.5178 16.4561 12.2731 16.0303 12.1209C15.6046 11.9687 15.1504 11.9127 14.7005 11.9571C14.2505 12.0015 13.816 12.1451 13.4282 12.3775C13.0404 12.61 12.709 12.9255 12.4578 13.3015C12.2066 13.6774 12.0419 14.1043 11.9755 14.5516C11.9091 14.9988 11.9427 15.4552 12.0738 15.8878C12.205 16.3205 12.4304 16.7188 12.734 17.0539C13.0375 17.3889 13.4116 17.6526 13.8292 17.8258ZM11.6684 11.6683C12.1059 11.2307 12.6253 10.8837 13.197 10.6469C13.7686 10.4101 14.3813 10.2882 15 10.2882C15.6188 10.2882 16.2315 10.4101 16.8031 10.6469C17.3748 10.8837 17.8942 11.2307 18.3317 11.6683C18.7692 12.1058 19.1163 12.6252 19.3531 13.1968C19.5899 13.7685 19.7117 14.3812 19.7117 14.9999C19.7117 15.6187 19.5899 16.2314 19.3531 16.803C19.1163 17.3747 18.7692 17.8941 18.3317 18.3316C17.4481 19.2152 16.2497 19.7116 15 19.7116C13.7504 19.7116 12.552 19.2152 11.6684 18.3316C10.7848 17.448 10.2884 16.2495 10.2884 14.9999C10.2884 13.7503 10.7848 12.5519 11.6684 11.6683ZM20.7567 10.9899C20.8651 10.8876 20.9519 10.7647 21.012 10.6282C21.072 10.4918 21.104 10.3447 21.1062 10.1957C21.1084 10.0467 21.0806 9.89871 21.0246 9.76059C20.9686 9.62248 20.8854 9.49701 20.78 9.39162C20.6746 9.28623 20.5491 9.20305 20.411 9.14702C20.2729 9.09098 20.125 9.06323 19.9759 9.0654C19.8269 9.06758 19.6798 9.09963 19.5434 9.15967C19.407 9.2197 19.284 9.3065 19.1817 9.41492C18.9828 9.62578 18.8739 9.90585 18.8781 10.1957C18.8824 10.4855 18.9994 10.7623 19.2043 10.9673C19.4093 11.1723 19.6861 11.2893 19.9759 11.2935C20.2658 11.2977 20.5459 11.1888 20.7567 10.9899Z" fill="#323232"/>
</g>
<defs>
<clipPath id="clip0_133_151">
<rect width="20" height="20" fill="white" transform="translate(5 5)"/>
</clipPath>
</defs>
</svg>
