<svg width="151" height="49" viewBox="0 0 151 49" fill="none" xmlns="http://www.w3.org/2000/svg">
<path fill-rule="evenodd" clip-rule="evenodd" d="M48.0049 1.01209C48.0076 0.881086 47.9845 0.750734 47.9367 0.628605C47.8886 0.505689 47.8164 0.393428 47.7242 0.298597C47.632 0.203756 47.5217 0.12827 47.3995 0.0768758C47.2773 0.0254775 47.146 -0.000704651 47.0133 1.44196e-05L47.008 4.30298e-05V7.16401e-05C45.7994 0.0195256 43.835 0.148364 42.1623 1.08535C41.3169 1.55893 40.5421 2.24094 39.9814 3.21662C39.4214 4.19143 39.0912 5.43134 39.0912 6.99701C39.0912 7.27315 39.3151 7.49701 39.5912 7.49701C39.8673 7.49701 40.0912 7.27315 40.0912 6.99701C40.0912 5.57418 40.3902 4.51252 40.8485 3.71481C41.3064 2.91798 41.9393 2.35652 42.651 1.95779C44.0851 1.15449 45.8221 1.02042 47.0049 1.00026C46.9279 5.18185 45.8876 7.10267 44.5824 8.02727C43.74 8.62412 42.7328 8.85374 41.6359 8.942C42.5388 8.31489 43.34 7.26935 43.5516 5.5584C43.5856 5.28435 43.3909 5.0347 43.1168 5.00079C42.8428 4.96689 42.5931 5.16156 42.5592 5.43562C42.5572 5.45189 42.5551 5.46809 42.553 5.48421C42.319 7.24867 41.3502 8.06757 40.4406 8.46977C40.0669 8.63505 39.699 8.73075 39.39 8.78571H38.7023H38.2407C37.7111 8.78571 37.2031 9.00235 36.8286 9.38797C36.454 9.7736 36.2436 10.2966 36.2436 10.842V20.6363C36.2436 25.0519 36.3277 28.4935 36.6536 32.2814L36.5747 32.3193C35.122 29.1466 33.4718 26.0739 31.6346 23.1201L24.3662 11.3073C23.8917 10.5339 23.2346 9.89687 22.4561 9.45588C21.6776 9.01489 20.8033 8.78433 19.9148 8.78571H18.9373V35.0682C18.9373 35.6121 19.1471 36.1338 19.5207 36.5184C19.8942 36.903 20.4008 37.1191 20.9291 37.1191H22.2009C22.2232 37.1191 22.2446 37.1099 22.2604 37.0937C22.2762 37.0775 22.285 37.0555 22.285 37.0325V25.0141C22.285 20.3063 22.2009 16.9026 21.996 13.3257L22.1221 13.2825C23.6507 16.5402 25.3706 19.699 27.2725 22.7413L35.4133 36.1342C35.5931 36.4292 35.8426 36.6723 36.1386 36.8408C36.4346 37.0092 36.7673 37.0975 37.1055 37.0974H39.5126C39.5339 37.096 39.554 37.0863 39.5687 37.0702C39.5833 37.0541 39.5914 37.0329 39.5914 37.0108V9.99701L39.6653 9.99701C41.4524 9.99724 43.5312 9.9975 45.1605 8.84325C46.8522 7.64481 47.9266 5.3201 48.0049 1.01209ZM18.2717 48.0505L17.8439 48.7531C18.1943 48.7747 18.5622 48.7855 18.9476 48.7855C22.0477 48.7834 25.1025 48.018 27.857 46.5534C30.6115 45.0887 32.986 42.9671 34.7824 40.3656L34.2569 39.9922C34.0169 39.813 33.719 39.7361 33.4253 39.7774C33.1316 39.8188 32.8647 39.9752 32.6802 40.2141C31.0251 42.3308 28.9296 44.0379 26.5483 45.2095C24.1669 46.3812 21.5605 46.9874 18.9213 46.9836L18.9213 46.9836C16.0784 46.961 13.2741 46.3038 10.7017 45.0574C7.20547 43.3725 4.43591 40.4188 2.92351 36.7619C1.96101 34.4651 1.49255 32.2321 1.43067 30.1061H11.4583C11.4806 30.1061 11.502 30.097 11.5177 30.0808C11.5335 30.0646 11.5424 30.0425 11.5424 30.0196V29.5271C11.5424 28.9818 11.3319 28.4588 10.9574 28.0732C10.5829 27.6875 10.0749 27.4709 9.54526 27.4709H1.56354C2.72712 18.6078 10.9517 12.1367 18.937 11.6591V8.78571C13.9651 8.91958 9.232 11.01 5.71111 14.6269C2.19021 18.2439 0.149217 23.1125 0.00786284 28.2315C-0.133491 33.3504 1.63554 38.3306 4.95115 42.1477C8.26676 45.9648 12.8769 48.3287 17.8334 48.7533L18.2717 48.0505Z" fill="white"/>
<path d="M56.48 36.7858C55.952 36.7858 55.544 36.6498 55.256 36.3778C54.984 36.0898 54.848 35.6818 54.848 35.1538V21.4978C54.848 20.9698 54.984 20.5698 55.256 20.2978C55.544 20.0098 55.952 19.8658 56.48 19.8658H65.048C65.448 19.8658 65.752 19.9698 65.96 20.1778C66.184 20.3858 66.296 20.6818 66.296 21.0658C66.296 21.4658 66.184 21.7778 65.96 22.0018C65.752 22.2098 65.448 22.3138 65.048 22.3138H57.8V26.9698H64.52C64.936 26.9698 65.248 27.0738 65.456 27.2818C65.664 27.4898 65.768 27.7938 65.768 28.1938C65.768 28.5938 65.664 28.8978 65.456 29.1058C65.248 29.3138 64.936 29.4178 64.52 29.4178H57.8V34.3378H65.048C65.448 34.3378 65.752 34.4418 65.96 34.6498C66.184 34.8578 66.296 35.1618 66.296 35.5618C66.296 35.9618 66.184 36.2658 65.96 36.4738C65.752 36.6818 65.448 36.7858 65.048 36.7858H56.48ZM69.9374 31.5538C69.5854 31.5538 69.2894 31.4418 69.0494 31.2178C68.8254 30.9778 68.7134 30.6898 68.7134 30.3538C68.7134 30.0018 68.8254 29.7138 69.0494 29.4898C69.2894 29.2658 69.5854 29.1538 69.9374 29.1538H75.0494C75.3854 29.1538 75.6654 29.2658 75.8894 29.4898C76.1294 29.7138 76.2494 30.0018 76.2494 30.3538C76.2494 30.6898 76.1294 30.9778 75.8894 31.2178C75.6654 31.4418 75.3854 31.5538 75.0494 31.5538H69.9374ZM80.7277 36.9778C80.2477 36.9778 79.8797 36.8498 79.6237 36.5938C79.3677 36.3218 79.2397 35.9378 79.2397 35.4418V26.3698C79.2397 25.8738 79.3677 25.4978 79.6237 25.2418C79.8797 24.9858 80.2397 24.8578 80.7037 24.8578C81.1677 24.8578 81.5277 24.9858 81.7837 25.2418C82.0397 25.4978 82.1677 25.8738 82.1677 26.3698V28.0018L81.9037 27.4018C82.2557 26.5538 82.7997 25.9138 83.5357 25.4818C84.2877 25.0338 85.1357 24.8098 86.0797 24.8098C87.0237 24.8098 87.7997 24.9858 88.4077 25.3378C89.0157 25.6898 89.4717 26.2258 89.7757 26.9458C90.0797 27.6498 90.2317 28.5458 90.2317 29.6338V35.4418C90.2317 35.9378 90.1037 36.3218 89.8477 36.5938C89.5917 36.8498 89.2237 36.9778 88.7437 36.9778C88.2637 36.9778 87.8877 36.8498 87.6157 36.5938C87.3597 36.3218 87.2317 35.9378 87.2317 35.4418V29.7778C87.2317 28.8658 87.0557 28.2018 86.7037 27.7858C86.3677 27.3698 85.8397 27.1618 85.1197 27.1618C84.2397 27.1618 83.5357 27.4418 83.0077 28.0018C82.4957 28.5458 82.2397 29.2738 82.2397 30.1858V35.4418C82.2397 36.4658 81.7357 36.9778 80.7277 36.9778ZM97.1428 37.0258C96.2948 37.0258 95.5348 36.8658 94.8628 36.5458C94.2068 36.2098 93.6868 35.7618 93.3027 35.2018C92.9348 34.6418 92.7508 34.0098 92.7508 33.3058C92.7508 32.4418 92.9748 31.7618 93.4228 31.2658C93.8708 30.7538 94.5988 30.3858 95.6068 30.1618C96.6148 29.9378 97.9668 29.8258 99.6628 29.8258H100.863V31.5538H99.6868C98.6948 31.5538 97.9028 31.6018 97.3108 31.6978C96.7188 31.7938 96.2948 31.9618 96.0388 32.2018C95.7988 32.4258 95.6788 32.7458 95.6788 33.1618C95.6788 33.6898 95.8628 34.1218 96.2308 34.4578C96.5988 34.7938 97.1108 34.9618 97.7668 34.9618C98.2948 34.9618 98.7588 34.8418 99.1588 34.6018C99.5748 34.3458 99.9028 34.0018 100.143 33.5698C100.383 33.1378 100.503 32.6418 100.503 32.0818V29.3218C100.503 28.5218 100.327 27.9458 99.9748 27.5938C99.6228 27.2418 99.0308 27.0658 98.1988 27.0658C97.7348 27.0658 97.2308 27.1218 96.6868 27.2338C96.1588 27.3458 95.5988 27.5378 95.0068 27.8098C94.7028 27.9538 94.4308 27.9938 94.1908 27.9298C93.9668 27.8658 93.7908 27.7378 93.6628 27.5458C93.5348 27.3378 93.4708 27.1138 93.4708 26.8738C93.4708 26.6338 93.5348 26.4018 93.6628 26.1778C93.7908 25.9378 94.0068 25.7618 94.3108 25.6498C95.0468 25.3458 95.7508 25.1298 96.4228 25.0018C97.1108 24.8738 97.7348 24.8098 98.2948 24.8098C99.4468 24.8098 100.391 24.9858 101.127 25.3378C101.879 25.6898 102.439 26.2258 102.807 26.9458C103.175 27.6498 103.359 28.5618 103.359 29.6818V35.4418C103.359 35.9378 103.239 36.3218 102.999 36.5938C102.759 36.8498 102.415 36.9778 101.967 36.9778C101.519 36.9778 101.167 36.8498 100.911 36.5938C100.671 36.3218 100.551 35.9378 100.551 35.4418V34.2898H100.743C100.631 34.8498 100.407 35.3378 100.071 35.7538C99.7508 36.1538 99.3428 36.4658 98.8468 36.6898C98.3508 36.9138 97.7828 37.0258 97.1428 37.0258ZM111.78 37.0258C110.74 37.0258 109.868 36.8498 109.164 36.4978C108.476 36.1458 107.964 35.6338 107.628 34.9618C107.292 34.2738 107.124 33.4258 107.124 32.4178V27.3058H105.876C105.492 27.3058 105.196 27.2098 104.988 27.0178C104.78 26.8098 104.676 26.5298 104.676 26.1778C104.676 25.8098 104.78 25.5298 104.988 25.3378C105.196 25.1458 105.492 25.0498 105.876 25.0498H107.124V22.8658C107.124 22.3698 107.252 21.9938 107.508 21.7378C107.78 21.4818 108.156 21.3538 108.636 21.3538C109.116 21.3538 109.484 21.4818 109.74 21.7378C109.996 21.9938 110.124 22.3698 110.124 22.8658V25.0498H112.668C113.052 25.0498 113.348 25.1458 113.556 25.3378C113.764 25.5298 113.868 25.8098 113.868 26.1778C113.868 26.5298 113.764 26.8098 113.556 27.0178C113.348 27.2098 113.052 27.3058 112.668 27.3058H110.124V32.2498C110.124 33.0178 110.292 33.5938 110.628 33.9778C110.964 34.3618 111.508 34.5538 112.26 34.5538C112.532 34.5538 112.772 34.5298 112.98 34.4818C113.188 34.4338 113.372 34.4018 113.532 34.3858C113.724 34.3698 113.884 34.4338 114.012 34.5778C114.14 34.7058 114.204 34.9778 114.204 35.3938C114.204 35.7138 114.148 36.0018 114.036 36.2578C113.94 36.4978 113.756 36.6658 113.484 36.7618C113.276 36.8258 113.004 36.8818 112.668 36.9298C112.332 36.9938 112.036 37.0258 111.78 37.0258ZM119.863 37.0258C118.887 37.0258 118.079 36.8498 117.439 36.4978C116.799 36.1298 116.319 35.5858 115.999 34.8658C115.695 34.1458 115.543 33.2498 115.543 32.1778V26.3698C115.543 25.8578 115.671 25.4818 115.927 25.2418C116.183 24.9858 116.551 24.8578 117.031 24.8578C117.511 24.8578 117.879 24.9858 118.135 25.2418C118.407 25.4818 118.543 25.8578 118.543 26.3698V32.2258C118.543 33.0578 118.711 33.6738 119.047 34.0738C119.383 34.4738 119.919 34.6738 120.655 34.6738C121.455 34.6738 122.111 34.4018 122.623 33.8578C123.135 33.2978 123.391 32.5618 123.391 31.6498V26.3698C123.391 25.8578 123.519 25.4818 123.775 25.2418C124.031 24.9858 124.399 24.8578 124.879 24.8578C125.359 24.8578 125.727 24.9858 125.983 25.2418C126.255 25.4818 126.391 25.8578 126.391 26.3698V35.4418C126.391 36.4658 125.903 36.9778 124.927 36.9778C124.463 36.9778 124.103 36.8498 123.847 36.5938C123.591 36.3218 123.463 35.9378 123.463 35.4418V33.6178L123.799 34.3378C123.463 35.2018 122.951 35.8658 122.263 36.3298C121.591 36.7938 120.791 37.0258 119.863 37.0258ZM131.049 36.9778C130.553 36.9778 130.169 36.8498 129.897 36.5938C129.641 36.3218 129.513 35.9378 129.513 35.4418V26.3698C129.513 25.8738 129.641 25.4978 129.897 25.2418C130.153 24.9858 130.513 24.8578 130.977 24.8578C131.441 24.8578 131.801 24.9858 132.057 25.2418C132.313 25.4978 132.441 25.8738 132.441 26.3698V27.8818H132.201C132.425 26.9218 132.865 26.1938 133.521 25.6978C134.177 25.2018 135.049 24.9058 136.137 24.8098C136.473 24.7778 136.737 24.8658 136.929 25.0738C137.137 25.2658 137.257 25.5698 137.289 25.9858C137.321 26.3858 137.225 26.7138 137.001 26.9698C136.793 27.2098 136.473 27.3538 136.041 27.4018L135.513 27.4498C134.537 27.5458 133.801 27.8498 133.305 28.3618C132.809 28.8578 132.561 29.5618 132.561 30.4738V35.4418C132.561 35.9378 132.433 36.3218 132.177 36.5938C131.921 36.8498 131.545 36.9778 131.049 36.9778ZM144.508 37.0258C143.18 37.0258 142.036 36.7778 141.076 36.2818C140.116 35.7858 139.372 35.0818 138.844 34.1698C138.332 33.2578 138.076 32.1778 138.076 30.9298C138.076 29.7138 138.324 28.6498 138.82 27.7378C139.332 26.8258 140.028 26.1138 140.908 25.6018C141.804 25.0738 142.82 24.8098 143.956 24.8098C144.788 24.8098 145.532 24.9458 146.188 25.2178C146.86 25.4898 147.428 25.8818 147.892 26.3938C148.372 26.9058 148.732 27.5298 148.972 28.2658C149.228 28.9858 149.356 29.8018 149.356 30.7138C149.356 31.0018 149.252 31.2258 149.044 31.3858C148.852 31.5298 148.572 31.6018 148.204 31.6018H140.5V29.8738H147.244L146.86 30.2338C146.86 29.4978 146.748 28.8818 146.524 28.3858C146.316 27.8898 146.004 27.5138 145.588 27.2578C145.188 26.9858 144.684 26.8498 144.076 26.8498C143.404 26.8498 142.828 27.0098 142.348 27.3298C141.884 27.6338 141.524 28.0738 141.268 28.6498C141.028 29.2098 140.908 29.8818 140.908 30.6658V30.8338C140.908 32.1458 141.212 33.1298 141.82 33.7858C142.444 34.4258 143.356 34.7458 144.556 34.7458C144.972 34.7458 145.436 34.6978 145.948 34.6018C146.476 34.4898 146.972 34.3058 147.436 34.0498C147.772 33.8578 148.068 33.7778 148.324 33.8098C148.58 33.8258 148.78 33.9138 148.924 34.0738C149.084 34.2338 149.18 34.4338 149.212 34.6738C149.244 34.8978 149.196 35.1298 149.068 35.3698C148.956 35.6098 148.756 35.8178 148.468 35.9938C147.908 36.3458 147.26 36.6098 146.524 36.7858C145.804 36.9458 145.132 37.0258 144.508 37.0258Z" fill="#F2F2F2"/>
</svg>
