<svg width="30" height="30" viewBox="0 0 30 30" fill="none" xmlns="http://www.w3.org/2000/svg">
<path d="M6.5625 26.25C6.31386 26.25 6.0754 26.1512 5.89959 25.9754C5.72377 25.7996 5.625 25.5611 5.625 25.3125V4.68751C5.62503 4.5246 5.66751 4.36451 5.74825 4.22301C5.82899 4.08152 5.94521 3.96351 6.08546 3.88061C6.2257 3.79772 6.38512 3.7528 6.54801 3.75028C6.7109 3.74776 6.87164 3.78774 7.01437 3.86626L25.7644 14.1788C25.9114 14.2597 26.0339 14.3786 26.1193 14.523C26.2047 14.6675 26.2497 14.8322 26.2497 15C26.2497 15.1678 26.2047 15.3325 26.1193 15.477C26.0339 15.6214 25.9114 15.7403 25.7644 15.8213L7.01437 26.1338C6.87595 26.21 6.72051 26.25 6.5625 26.25Z" fill="white"/>
</svg>
