<svg width="60" height="60" viewBox="0 0 80 80" fill="none" xmlns="http://www.w3.org/2000/svg">
<g clip-path="url(#clip0_233_4)">
<path d="M18.2702 6.64001C17.975 6.26032 17.6024 5.94777 17.1772 5.72313C16.7519 5.4985 16.2838 5.36691 15.8038 5.33712C15.3237 5.30733 14.8429 5.38001 14.3931 5.55033C13.9434 5.72066 13.535 5.98473 13.1952 6.32501L8.02516 11.5C5.61016 13.92 4.72016 17.345 5.77516 20.35C10.1539 32.7879 17.2766 44.0805 26.6152 53.39C35.9248 62.7284 47.2173 69.8512 59.6552 74.23C62.6602 75.285 66.0852 74.395 68.5052 71.98L73.6752 66.81C74.0154 66.4702 74.2795 66.0618 74.4498 65.612C74.6202 65.1623 74.6928 64.6814 74.663 64.2014C74.6333 63.7214 74.5017 63.2532 74.277 62.828C74.0524 62.4028 73.7399 62.0302 73.3602 61.735L61.8252 52.765C61.4195 52.4504 60.9477 52.232 60.4453 52.1263C59.943 52.0207 59.4232 52.0305 58.9252 52.155L47.9752 54.89C46.5136 55.2553 44.9823 55.2359 43.5304 54.8337C42.0785 54.4316 40.7555 53.6603 39.6902 52.595L27.4102 40.31C26.344 39.2452 25.5718 37.9224 25.1687 36.4705C24.7657 35.0186 24.7455 33.487 25.1102 32.025L27.8502 21.075C27.9747 20.577 27.9845 20.0572 27.8788 19.5548C27.7732 19.0525 27.5548 18.5807 27.2402 18.175L18.2702 6.64001ZM9.42016 2.55501C10.2951 1.67976 11.3463 1.00066 12.5039 0.562816C13.6614 0.124971 14.8989 -0.0616061 16.1341 0.0154753C17.3693 0.0925568 18.5739 0.431532 19.6681 1.00989C20.7622 1.58826 21.7208 2.39277 22.4802 3.37001L31.4502 14.9C33.0952 17.015 33.6752 19.77 33.0252 22.37L30.2902 33.32C30.1488 33.8872 30.1564 34.4812 30.3123 35.0446C30.4683 35.6079 30.7672 36.1213 31.1802 36.535L43.4652 48.82C43.8793 49.2338 44.3936 49.5332 44.9579 49.6892C45.5222 49.8452 46.1173 49.8523 46.6852 49.71L57.6302 46.975C58.9132 46.6542 60.2524 46.6293 61.5466 46.9021C62.8407 47.175 64.0558 47.7385 65.1002 48.55L76.6302 57.52C80.7752 60.745 81.1552 66.87 77.4452 70.575L72.2752 75.745C68.5752 79.445 63.0452 81.07 57.8902 79.255C44.6961 74.6126 32.7165 67.0592 22.8402 57.155C12.9366 47.2801 5.3832 35.3023 0.740157 22.11C-1.06984 16.96 0.555157 11.425 4.25516 7.72501L9.42516 2.55501H9.42016Z" fill="#2e8b57"/>
</g>
<defs>
<clipPath id="clip0_233_4">
<rect width="80" height="80" fill="white"/>
</clipPath>
</defs>
</svg>
