<svg width="30" height="30" viewBox="0 0 60 60" fill="none" xmlns="http://www.w3.org/2000/svg">
<path d="M55 13.75H22.5C19.75 13.75 17.5 16 17.5 18.75V41.25C17.5 42.5761 18.0268 43.8479 18.9645 44.7855C19.9021 45.7232 21.1739 46.25 22.5 46.25H55C57.775 46.25 60 44.025 60 41.25V18.75C60 17.4239 59.4732 16.1521 58.5355 15.2145C57.5979 14.2768 56.3261 13.75 55 13.75ZM55 41.25H22.5V22.925L38.75 31.25L55 22.925V41.25ZM38.75 27.025L22.5 18.75H55L38.75 27.025ZM12.5 41.25C12.5 41.675 12.575 42.075 12.625 42.5H2.5C1.12 42.5 0 41.375 0 40C0 38.625 1.12 37.5 2.5 37.5H12.5V41.25ZM7.5 17.5H12.625C12.575 17.925 12.5 18.325 12.5 18.75V22.5H7.5C6.125 22.5 5 21.375 5 20C5 18.625 6.125 17.5 7.5 17.5ZM2.5 30C2.5 28.625 3.625 27.5 5 27.5H12.5V32.5H5C3.625 32.5 2.5 31.375 2.5 30Z" fill="#323232"/>
</svg>
