<svg width="30" height="30" viewBox="0 0 30 30" fill="none" xmlns="http://www.w3.org/2000/svg">
<circle cx="15" cy="15" r="15" fill="white"/>
<path fill-rule="evenodd" clip-rule="evenodd" d="M12.8576 12.4742H15.9526V14.0159C16.3984 13.1292 17.5417 12.3326 19.2592 12.3326C22.5517 12.3326 23.3334 14.0976 23.3334 17.3359V23.3334H20.0001V18.0734C20.0001 16.2292 19.5542 15.1892 18.4192 15.1892C16.8451 15.1892 16.1909 16.3101 16.1909 18.0726V23.3334H12.8576V12.4742ZM7.14175 23.1917H10.4751V12.3326H7.14175V23.1917ZM10.9526 8.79175C10.9527 9.07114 10.8973 9.34778 10.7896 9.60557C10.6818 9.86336 10.524 10.0972 10.3251 10.2934C9.92208 10.6939 9.37659 10.9181 8.80841 10.9167C8.24124 10.9164 7.69701 10.6927 7.29341 10.2942C7.09526 10.0973 6.9379 9.86327 6.83037 9.60544C6.72283 9.34761 6.66723 9.0711 6.66675 8.79175C6.66675 8.22758 6.89175 7.68758 7.29425 7.28925C7.69749 6.89021 8.24195 6.6665 8.80925 6.66675C9.37758 6.66675 9.92258 6.89091 10.3251 7.28925C10.7267 7.68758 10.9526 8.22758 10.9526 8.79175Z" fill="#323232"/>
</svg>
