<svg width="60" height="60" viewBox="0 0 80 80" fill="none" xmlns="http://www.w3.org/2000/svg">
<path d="M45 65H65V70H45V65ZM45 55H75V60H45V55ZM45 45H75V50H45V45Z" fill="#2e8b57"/>
<path d="M51.3724 28.0425L40 5L28.6275 28.0425L3.19995 31.7375L21.6 49.675L17.255 75L35 65.6725V60.0225L23.8975 65.86L26.5275 50.52L26.9725 47.9275L25.09 46.095L13.945 35.2275L29.3475 32.99L31.9475 32.6125L33.1125 30.255L40 16.2975L46.8874 30.255L48.0525 32.6125L50.6525 32.99L69.2875 35.7025L69.9999 30.75L51.3724 28.0425Z" fill="#2e8b57"/>
</svg>
